# xmcd
#
# Track frame offsets: 
#        150
#        13679
#        24351
#        46236
#        61608
#        71951
#        87568
#        100205
#        115037
#        131154
#        146471
#        162055
#
# Disc length: 2326 seconds
#
# Revision: 0
# Processed by: cddbd v1.5.2PL0 Copyright (c) Steve Scherf et al.
# Submitted via: ExactAudioCopy v1.3
#
DISCID=9b09140c
DTITLE=Erick Hovey - Prairie Dance Music
DYEAR=2001
DGENRE=Electric Blues
TTITLE0=Blues And Love
TTITLE1=Gonna Tell
TTITLE2=Down The River Of Love
TTITLE3=Fool Like Me
TTITLE4=Fatalistic Blues
TTITLE5=Turn Up The Sky
TTITLE6=Devil In My Pocket
TTITLE7=She's Alright
TTITLE8=Bondo Mondo
TTITLE9=Mamma's Little Baby
TTITLE10=Food
TTITLE11=Love Me Baby
EXTD=
EXTT0=
EXTT1=
EXTT2=
EXTT3=
EXTT4=
EXTT5=
EXTT6=
EXTT7=
EXTT8=
EXTT9=
EXTT10=
EXTT11=
PLAYORDER=
